<svg width="110" height="107" viewBox="0 0 110 107" fill="none" xmlns="http://www.w3.org/2000/svg">
<path d="M38.112 62.992L29.71 77.358L20.022 85.9H38.112V62.992Z" fill="black"/>
<path d="M20.022 2.026H88.952C91.616 2.02752 94.1783 3.04956 96.112 4.882C100.648 9.176 107.946 18.462 107.946 33.772V104.6H38.114V42.95" fill="white"/>
<path d="M20.022 2.026H88.952C91.616 2.02752 94.1783 3.04956 96.112 4.882C100.648 9.176 107.946 18.462 107.946 33.772V104.6H38.114V42.95" stroke="black" stroke-width="4" stroke-linecap="round" stroke-linejoin="round"/>
<path d="M38.864 28.386H42.864" stroke="black" stroke-width="4" stroke-linecap="round" stroke-linejoin="round"/>
<path d="M51.304 28.386H97.73" stroke="black" stroke-width="4" stroke-linecap="round" stroke-linejoin="round" stroke-dasharray="8.44"/>
<path d="M101.952 28.386H105.952" stroke="black" stroke-width="4" stroke-linecap="round" stroke-linejoin="round"/>
<path fill-rule="evenodd" clip-rule="evenodd" d="M49.63 93.86C49.5196 93.86 49.43 93.7705 49.43 93.66V91.17C46.34 90.77 44.708 88.49 44.708 84.554V79.8C44.708 79.6895 44.7976 79.6 44.908 79.6H47.652C47.7625 79.6 47.852 79.6895 47.852 79.8C47.852 80.4762 47.8361 81.3546 47.8213 82.171L47.8213 82.1711L47.816 82.464L47.8126 82.6498L47.8126 82.6498C47.7998 83.3356 47.788 83.9691 47.788 84.382C47.788 86.764 48.282 87.982 49.43 88.404V68.138C49.258 67.85 49.098 67.574 48.946 67.31C48.9061 67.241 48.8666 67.1724 48.8276 67.1046L48.8276 67.1045C48.6947 66.8733 48.5663 66.6501 48.438 66.446C45.238 60.764 44.9 58.794 44.9 53.466C44.9 48.824 46.34 46.442 49.43 45.984V43.714C49.43 43.6036 49.5196 43.514 49.63 43.514H51.6C51.7105 43.514 51.8 43.6036 51.8 43.714V45.986C54.856 46.488 56.2 48.736 56.266 53.464V58.164C56.266 58.2745 56.1765 58.364 56.066 58.364H53.4C53.2896 58.364 53.2 58.2745 53.2 58.164V53.292C53.2 50.738 52.8 49.492 51.814 49.006V66.582L51.85 66.664C51.866 66.706 51.87 66.71 51.876 66.716C51.89 66.7289 51.9022 66.7437 51.912 66.76C55.588 72.798 56.28 74.21 56.28 82.93C56.28 87.796 54.776 90.562 51.814 91.158V93.66C51.814 93.7705 51.7245 93.86 51.614 93.86H49.63ZM51.8 88.156C52.734 87.518 53.122 85.99 53.122 83.046V82.494C53.122 77.822 53.122 75.668 51.8 72.596V88.156ZM47.916 53.408C47.916 50.788 48.372 49.424 49.43 48.94V62.106C48.024 58.832 47.916 56.58 47.916 53.408Z" fill="black"/>
<path fill-rule="evenodd" clip-rule="evenodd" d="M49.6221 43.314H51.6001H51.6021C51.823 43.314 52.0021 43.4931 52.0021 43.714V45.818C53.5621 46.114 54.6761 46.89 55.4021 48.18C56.0941 49.408 56.4321 51.086 56.4681 53.466V58.164C56.4681 58.3849 56.289 58.564 56.0681 58.564H53.3881C53.1671 58.564 52.9881 58.3849 52.9881 58.164V53.292C52.9881 51.142 52.6941 49.936 52.0021 49.374V66.536L52.0221 66.586C52.0389 66.6043 52.0537 66.6244 52.0661 66.646C55.7681 72.72 56.4661 74.146 56.4661 82.92C56.4661 87.818 54.9621 90.638 52.0001 91.32V93.66C52.0001 93.8809 51.821 94.06 51.6001 94.06H49.6301C49.4091 94.06 49.2301 93.8809 49.2301 93.66V91.354C46.1381 90.872 44.5081 88.532 44.5081 84.554V79.798C44.5081 79.5771 44.6871 79.398 44.9081 79.398H47.6361C47.857 79.398 48.0361 79.5771 48.0361 79.798C48.0361 80.4774 48.0201 81.3598 48.0053 82.178L48.0001 82.466L47.9967 82.6449C47.9839 83.3315 47.9721 83.9676 47.9721 84.38C47.9721 86.456 48.3481 87.612 49.2141 88.092V68.192C49.0952 67.9924 48.9828 67.7993 48.8737 67.6119L48.7561 67.41L48.6793 67.2772C48.5319 67.0224 48.392 66.7804 48.2521 66.55C48.2515 66.546 48.2515 66.542 48.2521 66.538C45.0421 60.82 44.6921 58.834 44.6921 53.466C44.6921 50.498 45.1701 46.522 49.2221 45.814V43.714C49.2221 43.4931 49.4011 43.314 49.6221 43.314ZM51.6001 46.158V43.714H49.6361V46.158C46.3181 46.564 45.1061 49.116 45.1061 53.466C45.1061 58.86 45.4881 60.774 48.6141 66.342C48.7811 66.6145 48.9476 66.9028 49.1232 67.2069C49.284 67.4853 49.4525 67.777 49.6361 68.082V88.674C47.9761 88.268 47.5941 86.528 47.5941 84.382C47.5941 83.9344 47.6074 83.2338 47.6218 82.4712C47.6391 81.5607 47.6581 80.5619 47.6581 79.8H44.9141V84.562C44.9141 88.1 46.2541 90.652 49.6361 91V93.66H51.6141V90.992C54.6801 90.47 56.0801 87.628 56.0801 82.93C56.0801 74.172 55.3781 72.838 51.7401 66.864C51.6999 66.8276 51.685 66.7913 51.6641 66.7407L51.6641 66.7406L51.6641 66.7406C51.6517 66.7105 51.6372 66.6753 51.6141 66.632V48.71C53.0161 49.174 53.4001 50.74 53.4001 53.292V58.164H56.0661V53.466C56.0001 49.174 54.9161 46.622 51.6001 46.158ZM49.6221 48.652V63.036C47.8981 59.382 47.7081 57.12 47.7081 53.408C47.7081 50.508 48.2821 49.052 49.6221 48.652ZM51.6001 88.498C52.8761 87.918 53.3221 86.236 53.3221 83.046L53.3222 82.4936C53.3243 77.3878 53.3251 75.2634 51.6001 71.678V88.498ZM49.2221 61.084C48.2221 58.472 48.1081 56.474 48.1081 53.408C48.1081 50.74 48.6321 49.718 49.2221 49.286V61.084ZM52.0001 73.642V87.714C52.6481 86.99 52.9221 85.546 52.9221 83.046V82.494C52.9241 78.36 52.9241 76.208 52.0001 73.642Z" fill="black"/>
<path d="M59.4119 92.086C59.3015 92.086 59.2119 91.9965 59.2119 91.886V45.486C59.2119 45.3755 59.3015 45.286 59.4119 45.286H69.4919C69.6024 45.286 69.6919 45.3755 69.6919 45.486V47.922C69.6919 48.0325 69.6024 48.122 69.4919 48.122H62.4199V66.976H68.7999C68.9104 66.976 68.9999 67.0655 68.9999 67.176V69.67C68.9999 69.7805 68.9104 69.87 68.7999 69.87H62.4199V91.886C62.4199 91.9965 62.3304 92.086 62.2199 92.086H59.4119Z" fill="black"/>
<path fill-rule="evenodd" clip-rule="evenodd" d="M59.42 45.086H69.5L69.492 45.088C69.7129 45.088 69.892 45.2671 69.892 45.488V47.924C69.892 48.1449 69.7129 48.324 69.492 48.324H62.62V66.778H68.8C69.0209 66.778 69.2 66.9571 69.2 67.178V69.672C69.2 69.8929 69.0209 70.072 68.8 70.072H62.62V91.886C62.62 92.1069 62.4409 92.286 62.22 92.286H59.42C59.1991 92.286 59.02 92.1069 59.02 91.886V45.486C59.02 45.2651 59.1991 45.086 59.42 45.086ZM69.492 47.924V45.488L69.5 45.486H59.42V91.886H62.22V69.672H68.8V67.178H62.22V47.924H69.492Z" fill="black"/>
<rect x="71.748" y="45.288" width="3.272" height="46.798" rx="0.2" fill="black"/>
<path fill-rule="evenodd" clip-rule="evenodd" d="M71.9481 45.088H74.8201C75.041 45.088 75.2201 45.2671 75.2201 45.488V91.888C75.2201 92.1089 75.041 92.288 74.8201 92.288H71.9481C71.7272 92.288 71.5481 92.1089 71.5481 91.888V45.488C71.5481 45.2671 71.7272 45.088 71.9481 45.088ZM74.8201 91.888V45.488H71.9481V91.888H74.8201Z" fill="black"/>
<path fill-rule="evenodd" clip-rule="evenodd" d="M87.7601 91.902C87.7685 92.0062 87.8556 92.0863 87.9601 92.086H90.7041C90.76 92.0862 90.8135 92.0629 90.8515 92.0219C90.8895 91.9808 90.9086 91.9258 90.9041 91.87L86.9481 45.47C86.9388 45.3666 86.8519 45.2876 86.7481 45.288H83.1761C83.0744 45.2873 82.9883 45.363 82.9761 45.464L77.7461 91.864C77.7406 91.9203 77.7579 91.9765 77.7941 92.02C77.8324 92.0624 77.887 92.0864 77.9441 92.086H80.6861C80.7899 92.0864 80.8768 92.0074 80.8861 91.904C80.8877 91.8883 80.9112 91.6432 80.9503 91.2353C81.1606 89.0419 81.8223 82.1416 81.9521 80.892H86.9381C87.0241 82.43 87.7281 91.492 87.7601 91.902ZM86.2501 71.78C86.5301 74.814 86.7801 77.492 86.8501 78.23H82.0621C82.3081 76.088 84.3241 58.712 84.5241 57.17C84.6041 56.566 84.6701 55.614 84.7241 54.582C84.7781 55.632 84.8361 56.602 84.8941 57.22C84.9555 57.9488 85.427 62.9856 85.8873 67.903C86.0118 69.2333 86.1356 70.5548 86.2501 71.78Z" fill="black"/>
<path fill-rule="evenodd" clip-rule="evenodd" d="M86.7481 45.088H83.1761C82.9719 45.0867 82.7995 45.2392 82.7761 45.442L77.5441 91.842C77.5319 91.9548 77.5682 92.0675 77.6441 92.152C77.7198 92.2371 77.8282 92.2858 77.9421 92.286H80.6861C80.8929 92.2869 81.0664 92.13 81.0861 91.924C81.0881 91.9038 81.1255 91.514 81.1853 90.8908L81.1854 90.8889L81.1855 90.8885C81.4159 88.4859 81.9781 82.6238 82.1321 81.092H86.7521C86.8624 82.8654 87.3907 89.6998 87.5339 91.5519L87.5621 91.916C87.5778 92.1251 87.7523 92.2866 87.9621 92.286H90.7061C90.8183 92.2864 90.9256 92.2396 91.0016 92.1571C91.0777 92.0746 91.1156 91.9638 91.1061 91.852L87.1521 45.452C87.1343 45.2445 86.9603 45.0853 86.7521 45.086L86.7481 45.088ZM90.7041 91.888L86.7481 45.488H83.1761L77.9441 91.888H80.6881C80.6881 91.888 81.7081 81.21 81.7721 80.688H87.1321C87.1321 81.216 87.9601 91.888 87.9601 91.888H90.7041ZM87.0681 78.43H81.8361C81.8361 78.372 84.1241 58.594 84.3241 57.144C84.5801 55.172 84.7081 49.372 84.7081 49.372C84.7081 49.372 84.8901 55.172 85.0901 57.202C85.1681 58.1212 85.8859 65.7853 86.4345 71.6433L86.4348 71.6458L86.4358 71.6569C86.7867 75.4032 87.0681 78.4074 87.0681 78.43ZM84.7021 57.35C84.4161 59.604 82.6081 75.216 82.2841 78.03H86.6301C86.5401 77.062 86.3081 74.582 86.0461 71.8C85.9256 70.51 85.795 69.1131 85.664 67.7115C85.2292 63.0615 84.7896 58.3612 84.7021 57.35Z" fill="black"/>
<path d="M95.0419 92.086C94.9314 92.086 94.8419 91.9965 94.8419 91.886V48.18H90.7039C90.5934 48.18 90.5039 48.0905 90.5039 47.98V45.488C90.5039 45.3775 90.5934 45.288 90.7039 45.288H102.252C102.362 45.288 102.452 45.3775 102.452 45.488V47.98C102.452 48.0905 102.362 48.18 102.252 48.18H98.0519V91.886C98.0519 91.9965 97.9624 92.086 97.8519 92.086H95.0419Z" fill="black"/>
<path fill-rule="evenodd" clip-rule="evenodd" d="M90.704 45.088H102.242C102.463 45.088 102.642 45.2671 102.642 45.488V47.98C102.642 48.0861 102.6 48.1878 102.525 48.2628C102.45 48.3379 102.348 48.38 102.242 48.38H98.242V91.886C98.242 92.1069 98.0629 92.286 97.842 92.286H95.042C94.821 92.286 94.642 92.1069 94.642 91.886V48.38H90.704C90.483 48.38 90.304 48.2009 90.304 47.98V45.488C90.304 45.2671 90.483 45.088 90.704 45.088ZM102.252 47.98V45.488H90.704V47.98H95.052V91.886H97.852V47.98H102.252Z" fill="black"/>
<path d="M20.022 83.9C15.562 83.9 11.062 79.736 7.678 72.476C4.016 64.622 2 54.138 2 42.95C2 31.762 4.016 21.278 7.678 13.426C11.062 6.164 15.562 2 20.022 2C24.482 2 28.984 6.164 32.368 13.426C36.03 21.278 38.046 31.764 38.046 42.95C38.046 54.136 36.03 64.622 32.368 72.476C28.984 79.736 24.484 83.9 20.022 83.9Z" fill="white"/>
<path fill-rule="evenodd" clip-rule="evenodd" d="M0 42.95C0 19.23 8.964 0 20.022 0C31.082 0 40.046 19.228 40.046 42.95C40.046 66.672 31.08 85.9 20.022 85.9C8.964 85.9 0 66.67 0 42.95ZM25.128 6.338C23.422 4.786 21.702 4 20.022 4C18.344 4 16.626 4.786 14.916 6.338C12.956 8.116 11.08 10.87 9.49 14.27C5.95 21.864 4 32.048 4 42.95C4 53.852 5.95 64.036 9.49 71.63C11.08 75.042 12.956 77.784 14.916 79.564C16.622 81.114 18.342 81.9 20.022 81.9C21.702 81.9 23.42 81.114 25.128 79.564C27.088 77.784 28.966 75.042 30.556 71.63C34.096 64.036 36.046 53.85 36.046 42.95C36.046 32.05 34.096 21.87 30.556 14.27C28.966 10.86 27.088 8.116 25.128 6.338Z" fill="black"/>
<ellipse cx="20.0219" cy="42.95" rx="6.914" ry="16.494" fill="black"/>
</svg>
